# xmcd
#
# Track frame offsets:
#   150
#   31661
#   54041
#   78084
#   97393
#   117476
#   136446
#
# Disc length: 2105 seconds
#
# Revision: 0
# Processed by: cddbd v1.5.2PL0 Copyright (c) Steve Scherf et al.
# Submitted via: GXTranscoder 2.0.1939
#
DISCID=52083707
DTITLE=Michael L. Möller - Workshop Wirklichkeit - CD2
DYEAR=1900
DGENRE=Alternative
TTITLE0=Michael L. Möller 1
TTITLE1=Michael L. Möller 2
TTITLE2=Michael L. Möller 3
TTITLE3=Michael L. Möller 4
TTITLE4=Michael L. Möller 5
TTITLE5=Michael L. Möller 6
TTITLE6=Michael L. Möller 7
EXTD=
EXTT0=
EXTT1=
EXTT2=
EXTT3=
EXTT4=
EXTT5=
EXTT6=
PLAYORDER=
